<svg fill="none" height="672" viewBox="0 0 504 672" width="504" xmlns="http://www.w3.org/2000/svg" xmlns:xlink="http://www.w3.org/1999/xlink"><clipPath id="a"><path d="m0 0h504v672h-504z"/></clipPath><g clip-path="url(#a)"><path d="m641.521 536.26c3.548 15.568-.459 31.447-11.169 45.183 1.184 3.965 1.774 7.784 2.097 11.663 2.482 28.235-15.626 60.317-73.469 66.725-70.562 7.613-110.636-24.477-149.392-55.738-11.099-9.047-22.137-17.825-33.467-25.407 4.854 36.165-9.628 64.314-39.399 76.183-31.859 12.626-69.883.681-88.194-27.616-12.68-19.699-13.279-42.151-1.781-58.608 15.621-21.914 48.642-29.441 88.922-19.987 31.639 7.471 55.485 26.601 81.042 47.035 36.985 29.688 75.081 60.534 141.225 53.364 42.445-4.593 66.254-25.268 63.733-54.905-.245-1.074-.154-1.942-.399-3.016-3.543 3.067-7.346 6.193-11.545 8.844-25.057 16.441-63.837 24.717-85.852 7.428-11.368-8.986-16.432-28.726-11.207-45.447 3.435-10.948 13.846-29.698 46.687-31.819 30.3-2.106 54.772 16.034 66.453 38.783 5.118-8.508 8.29-19.396 4.934-31.619-11.498-44.252-75.664-118.851-168.645-131.54 18.008 10.86 31.295 27.032 31.386 54.683.281 40.878-25.778 76.466-64.899 88.207-29.847 9.063-71.479 3.587-99.453-38.602-12.887-19.369-13.599-46.031-2.189-67.833 7.924-14.794 27.12-38.371 73.04-46.297-24.315-6.317-46.482-13.123-53.12-31.092-13.582-37.282 5.448-52.915 36.847-78.708 10.674-8.927 23.043-19.088 36.472-32.032 32.653-31.443 28.681-81.08 11.629-102.61-7.938-10.049-17.813-13.724-28.82-11.215.842 1.22 1.746 2.705 2.26 3.719 8.932 16.886 7.577 36.959-3.645 49.676-8.073 9.185-19.164 12.563-29.785 9.331-9.691-2.866-16.605-10.896-18.063-21.011-1.153-8.773 1.022-26.492 29.862-44.924.476-.389.952-.779 1.758-.962-20.198-17.991-58.133-24.586-106.032-17.909-15.608 2.146-30.619 4.438-45.091 6.614-98.774 15.17-170.0044 26.043-208.0995-20.902-17.318-21.4617-24.68354-52.5363-24.92851-53.611-.672369-2.9497 1.19347-5.9166 4.14596-6.5896 2.95326-.6732 5.91985 1.1922 6.59215 4.1419.0608.2668 7.0606 29.733 22.8163 49.2975 34.1244 41.9172 102.8776 31.3282 197.8926 17.0072 14.473-2.169 29.483-4.46 45.36-6.668 69.475-9.9029 102.901 7.887 118.398 23.838 17.021-5.86 33.354-1.108 44.932 13.756 22.254 28.25 21.543 84.6-12.744 117.545-13.637 13.274-26.274 23.496-37.216 32.484-30.447 25.011-44.451 36.674-33.388 66.624 5.122 13.798 27.313 19.469 51.299 25.578 7.507 1.961 15.282 3.859 23.179 6.294 107.033-1.244 194.272 81.65 209.708 141.945-.862-.086-.801.183-.678.719zm-118.968 48.013c1.469 6.442 4.364 11.712 8.173 14.796 15.507 12.278 47.713 8.607 73.038-7.895 3.658-2.528 9.016-6.29 14.273-11.725-8.776-21.153-30.77-39.575-57.993-37.605-19.465 1.331-32.47 9.943-36.904 23.941-1.998 6.104-1.872 12.851-.587 18.488zm-191.546-96.954c1.346 5.905 3.766 11.565 6.93 16.773 24.602 37.312 60.974 42.01 87.123 34.072 28.505-8.756 57.327-35.938 57.132-77.683-.155-34.13-23.913-47.916-52.453-56.658-61.875 1.116-85.207 27.611-93.215 43.273-6.681 12.817-8.454 27.339-5.517 40.223zm33.111-305.719c1.162 5.1 4.885 9.046 10.062 10.696 6.371 1.931 13.498-.255 18.363-6.166 8.344-9.239 9.188-24.12 2.309-36.952-.964-1.753-1.869-3.246-3.102-4.938-1.013.512-2.232 1.359-3.245 1.87-17.264 10.991-26.275 23.493-24.962 34.21.39.473.451.739.575 1.28zm-113.651 423.186c1.285 5.637 3.705 11.297 7.199 16.713 17.859 27.554 52.022 32.473 75.12 23.537 25.928-10.146 37.556-35.95 31.763-68.795-.306-1.342-.075-2.807.816-3.857-10.036-5.619-20.693-10.248-31.996-12.755-35.496-8.285-64.673-2.481-77.476 15.684-5.988 8.424-7.873 18.737-5.426 29.473z" fill="#15357d"/></g></svg>