<svg fill="none" height="234" viewBox="0 0 324 234" width="324" xmlns="http://www.w3.org/2000/svg" xmlns:xlink="http://www.w3.org/1999/xlink"><clipPath id="a"><path d="m0 0h324v234h-324z"/></clipPath><g clip-path="url(#a)"><path d="m129.325 96.6873c-46.8033 0-91.1283-45.7081-91.6755-46.2585l-1.6495-1.6521 149.212-100.7767 1.102 1.6513c1.095 1.6521 26.978 37.9987 20.091 78.4743-3.854 22.3032-17.065 41.5774-39.369 56.9968-12.109 8.2575-25.047 11.5649-37.711 11.5649zm-86.7192-47.6354c11.007 10.7384 72.4052 66.6351 122.2342 32.2159 21.193-14.5938 33.857-33.0416 37.711-54.2439 5.785-34.14237-13.211-66.3582-18.168-73.7923z" fill="#ffe4d8"/><path d="m142.523 158.756c0 14.324-11.562 25.888-25.876 25.888-14.321 0-25.8833-11.564-25.8833-25.888 0-14.315 11.5623-25.88 25.8833-25.88 14.314 0 25.876 8.261 25.876 25.88z" fill="#b1e8d2"/><path d="m40.9416 211.627c-.2814 0-.8286 0-1.1022-.274-.8286-.555-1.1023-1.931-.5551-2.76l23.9528-34.418c.555-.821 1.9309-1.095 2.7517-.547.8287.547 1.1023 1.923.555 2.752l-23.9527 34.418c-.2736.555-1.1022.829-1.6495.829z" fill="#ffe4d8"/><path d="m144.18 213.003c-.281 0-.281 0 0 0l-20.653-2.479c-1.095 0-1.923-1.102-1.923-2.205 0-1.102 1.102-1.923 2.204-1.923l20.372 2.479c1.103 0 1.923 1.094 1.923 2.197 0 1.102-1.102 1.931-1.923 1.931z" fill="#ffe4d8"/><path d="m308.303 12.0653c-2.355-.468-4.685.816-5.176 3.1446l-10.236 41.6407-15.674-9.4253c-1.84-1.0452-4.237-.8428-5.626.6282-1.902 2.048-1.341 4.9741.817 6.3742l18.149 11.1795 3.999 2.4445c1.839 1.0452 4.072.2274 4.617-1.8961l1.243-4.5086 11.09-44.2865c.49-2.329-.795-4.6219-3.203-5.2952z" fill="#b1e8d2"/></g></svg>