<svg fill="none" height="324" viewBox="0 0 372 324" width="372" xmlns="http://www.w3.org/2000/svg"><g fill="#ffe4d8"><path d="m306.998 50-48.998 25.1171 25.113 49.0059 48.998-25.117z"/><path d="m221 272.246 34.688-16.246v40.752z"/><path d="m149.798 98.0764c-.55 0-.826-.276-1.377-.5512l-20.647-17.622c-.826-.8257-1.102-1.9273-.275-3.029.825-.8257 1.927-.8257 3.028-.2752l20.648 17.622c.825.8264 1.1 1.9281.275 3.029-.551.5512-1.102.8264-1.652.8264z"/></g><path d="m80.2548 35.393-48.3529 36.7912 25.8605 16.1306-6.2953 30.2732 28.7186-41.2124-19.1259-9.5248z" fill="#b1e8d2"/></svg>