<svg fill="none" height="232" viewBox="0 0 566 232" width="566" xmlns="http://www.w3.org/2000/svg" xmlns:xlink="http://www.w3.org/1999/xlink"><clipPath id="a"><path d="m0 0h566v232h-566z"/></clipPath><g clip-path="url(#a)"><path d="m97 172.549 124.712-38.549-21.201 126.935z" fill="#ffe4d8"/><path d="m354.646 154.302c-11.288 0-20.646-9.362-20.646-20.651 0-11.29 9.358-20.651 20.646-20.651s20.646 9.361 20.646 20.651c0 11.289-9.358 20.651-20.646 20.651zm0-37.172c-9.084 0-16.518 7.435-16.518 16.521s7.434 16.521 16.518 16.521 16.518-7.435 16.518-16.521-7.434-16.521-16.518-16.521z" fill="#b1e8d2"/><g fill="#ffe4d8"><path d="m545.6 151.926c-.517.204-1.389.251-1.845-.162-28.113-18.825-37.186-59.9348-37.536-61.5724-.142-1.1282.582-2.3 1.701-2.4446 1.126-.1474 2.301.5745 2.45 1.6998.201.5123 8.811 41.2122 35.656 59.0572.812.569 1.315 1.849.491 2.766-.153.356-.663.556-.917.656z"/><path d="m519.965 155.205c-.517.204-1.382.247-1.845-.162-13.037-9.074-22.641-27.487-24.628-46.825-.149-1.126.675-2.042 1.802-2.189 1.126-.147 2.039.678 2.187 1.802 1.839 18.213 10.685 35.446 22.91 43.952.811.568 1.061 1.949.498 2.762-.262.103-.415.46-.924.66z"/><path d="m40 62.0107 33.5908-41.0107s19.8388 21.8571 2.2547 40.3344c-17.5847 18.4779-35.8455.6763-35.8455.6763z"/></g></g></svg>