<svg fill="none" height="244" viewBox="0 0 492 244" width="492" xmlns="http://www.w3.org/2000/svg" xmlns:xlink="http://www.w3.org/1999/xlink"><clipPath id="a"><path d="m0 0h492v244h-492z"/></clipPath><g clip-path="url(#a)"><path d="m130.014 276.099-109.014-93.343 131.591-40.751zm-100.7588-91.691 97.7338 83.705 20.099-120.05z" fill="#b1e8d2"/><g fill="#ffe4d8"><path d="m193.063 151.089c10.334 0 18.715-8.383 18.715-18.723 0-10.342-8.381-18.724-18.715-18.724-10.343 0-18.723 8.382-18.723 18.724 0 10.34 8.38 18.723 18.723 18.723z"/><path d="m400.277 97.4151c-.282 0-.555 0-.555 0l-49.274-15.6947c-1.102-.2752-1.657-1.3769-1.376-2.4785.274-1.1009 1.376-1.6521 2.471-1.3769l49.281 15.6954c1.102.2753 1.65 1.3762 1.376 2.4778-.274.8257-1.102 1.3769-1.923 1.3769z"/><path d="m368.069 114.212c-.274 0-.274 0-.555 0-1.102-.275-1.65-1.377-1.376-2.478l15.142-49.287c.274-1.1017 1.376-1.6521 2.479-1.3769 1.102.2753 1.649 1.3769 1.375 2.4778l-15.142 49.2871c-.274.827-1.102 1.377-1.923 1.377z"/></g></g></svg>