<svg fill="none" height="488" viewBox="0 0 320 488" width="320" xmlns="http://www.w3.org/2000/svg" xmlns:xlink="http://www.w3.org/1999/xlink"><clipPath id="a"><path d="m0 0h320v488h-320z"/></clipPath><g clip-path="url(#a)"><path d="m487.521 735.26c3.548 15.568-.459 31.447-11.169 45.182 1.184 3.966 1.774 7.785 2.097 11.664 2.482 28.235-15.626 60.316-73.469 66.725-70.562 7.613-110.636-24.477-149.392-55.738-11.099-9.047-22.137-17.826-33.467-25.407 4.854 36.165-9.628 64.314-39.399 76.182-31.859 12.627-69.883.682-88.1938-27.615-12.6803-19.699-13.2794-42.152-1.781-58.608 15.6208-21.914 48.6418-29.441 88.9218-19.987 31.639 7.471 55.485 26.601 81.042 47.035 36.985 29.688 75.081 60.534 141.225 53.364 42.445-4.593 66.254-25.268 63.733-54.906-.245-1.074-.154-1.941-.399-3.015-3.543 3.067-7.346 6.193-11.545 8.844-25.057 16.441-63.837 24.717-85.852 7.428-11.368-8.986-16.432-28.726-11.207-45.447 3.435-10.948 13.846-29.698 46.687-31.819 30.3-2.106 54.772 16.033 66.453 38.783 5.118-8.508 8.29-19.396 4.934-31.619-11.498-44.252-75.664-118.851-168.645-131.54 18.008 10.86 31.295 27.032 31.386 54.683.281 40.878-25.778 76.466-64.899 88.207-29.847 9.063-71.479 3.587-99.453-38.602-12.887-19.37-13.599-46.032-2.189-67.833 7.924-14.795 27.12-38.371 73.04-46.297-24.315-6.317-46.482-13.123-53.12-31.093-13.582-37.281 5.448-52.914 36.847-78.707 10.674-8.927 23.043-19.088 36.472-32.032 32.653-31.443 28.681-81.08 11.629-102.61-7.938-10.049-17.813-13.724-28.82-11.215.842 1.219 1.746 2.705 2.26 3.719 8.932 16.886 7.577 36.959-3.645 49.676-8.073 9.185-19.164 12.563-29.785 9.331-9.691-2.866-16.605-10.896-18.063-21.011-1.153-8.773 1.022-26.492 29.862-44.924.476-.39.952-.779 1.758-.962-20.198-17.991-58.133-24.586-106.032-17.909-15.608 2.146-30.6189 4.437-45.0909 6.614-98.7737 15.17-170.0045 26.043-208.0991-20.902-17.318-21.462-24.684-52.536-24.929-53.611-.672-2.95 1.193-5.917 4.146-6.59s5.92 1.192 6.592 4.142c.061.267 7.061 29.733 22.816 49.298 34.1248 41.917 102.8783 31.328 197.8927 17.006 14.473-2.168 29.4833-4.459 45.3603-6.667 69.475-9.903 102.901 7.887 118.398 23.838 17.021-5.86 33.354-1.108 44.932 13.756 22.254 28.25 21.543 84.599-12.744 117.545-13.637 13.274-26.274 23.495-37.216 32.484-30.447 25.011-44.451 36.674-33.388 66.624 5.122 13.798 27.313 19.469 51.299 25.578 7.507 1.96 15.282 3.859 23.179 6.294 107.033-1.244 194.272 81.649 209.708 141.945-.862-.086-.801.183-.678.719zm-118.968 48.013c1.469 6.442 4.364 11.711 8.173 14.796 15.507 12.277 47.713 8.607 73.038-7.895 3.658-2.528 9.016-6.291 14.273-11.725-8.776-21.153-30.77-39.575-57.993-37.605-19.465 1.331-32.47 9.942-36.904 23.941-1.998 6.104-1.872 12.851-.587 18.488zm-191.546-96.954c1.346 5.905 3.766 11.565 6.93 16.773 24.602 37.312 60.974 42.009 87.123 34.072 28.505-8.756 57.327-35.938 57.132-77.683-.155-34.131-23.913-47.916-52.453-56.658-61.875 1.116-85.207 27.611-93.215 43.272-6.681 12.817-8.454 27.34-5.517 40.224zm33.111-305.719c1.162 5.099 4.885 9.046 10.062 10.696 6.371 1.931 13.498-.255 18.363-6.166 8.344-9.239 9.188-24.12 2.309-36.952-.964-1.753-1.869-3.247-3.102-4.938-1.013.512-2.232 1.359-3.245 1.87-17.264 10.991-26.275 23.493-24.962 34.21.39.472.451.739.575 1.28zm-113.6507 423.186c1.285 5.637 3.7047 11.297 7.1987 16.713 17.859 27.554 52.022 32.472 75.12 23.537 25.928-10.146 37.556-35.95 31.763-68.795-.306-1.343-.075-2.807.816-3.857-10.036-5.619-20.693-10.249-31.996-12.755-35.496-8.285-64.673-2.481-77.476 15.684-5.9878 8.424-7.873 18.737-5.4257 29.473z" fill="#0d2a6d"/><path d="m-60 40.0791 214.532-145.0791s85.332 117.8512-27.622 195.4693c-84.1092 58.1117-186.91-50.3902-186.91-50.3902z" fill="#b1e8d2"/><g fill="#0d2a6d"><path d="m200.391 84.1951c0 21.1409-17.064 38.2079-38.19 38.2079-21.137 0-38.201-17.067-38.201-38.2079 0-21.1268 17.064-38.1951 38.201-38.1951 21.126 0 38.19 12.1917 38.19 38.1951z"/><path d="m54.8656 219.503c-.4153 0-1.2229 0-1.6267-.404-1.223-.819-1.6269-2.85-.8193-4.073l35.3515-50.798c.8192-1.212 2.8498-1.616 4.0613-.808 1.223.808 1.6268 2.839.8191 4.062l-35.3514 50.798c-.4039.819-1.6268 1.223-2.4345 1.223z"/><path d="m197.235 199c-.415 0-.415 0 0 0l-30.483-3.658c-1.615 0-2.838-1.627-2.838-3.254s1.627-2.839 3.254-2.839l30.067 3.658c1.627 0 2.838 1.616 2.838 3.243s-1.627 2.85-2.838 2.85z"/></g></g></svg>