<svg fill="none" height="488" viewBox="0 0 440 488" width="440" xmlns="http://www.w3.org/2000/svg" xmlns:xlink="http://www.w3.org/1999/xlink"><clipPath id="a"><path d="m0 0h440v488h-440z"/></clipPath><g clip-path="url(#a)"><path d="m127.136 291.279c-15.967 0-30.5585-7.435-41.5702-20.931-4.1292.274-7.984 0-11.838-.547-28.0803-3.855-55.3351-28.64-48.7278-86.461 8.2592-70.489 48.4527-102.429 87.545-133.268 11.287-8.811 22.3-17.622 32.21-26.9843-36.34-3.3042-60.5658-23.680029-65.5213-55.3446-5.2307-33.868 14.8664-68.2861 46.5253-79.8501 22.024-7.986 44.049-3.58 57.538 11.288 17.895 20.1011 17.895 53.969-.275 91.14044-14.316 29.18686-38.267 48.18576-63.87 68.56156-37.165 29.4621-75.7067 59.751-83.4155 125.834-4.9554 42.403 9.911 70.213 39.368 74.341 1.1015 0 1.927.281 3.0285.281-2.203-4.136-4.4052-8.538-6.057-13.221-10.4613-28.085-9.911-67.735 11.838-85.357 11.2876-9.086 31.659-9.636 46.801-.825 9.911 5.782 25.878 20.1 20.647 52.591-4.68 30.01-27.805 49.838-52.5816 56.172 7.1576 6.88 17.0686 12.392 29.7326 11.837 45.7-1.376 132.694-47.358 165.73-135.194-14.591 15.144-33.311 24.506-60.291 18.448-39.918-8.811-68.825-42.127-71.577-82.8791-2.203-31.1141 12.388-70.4888 59.739-88.38689 21.749-8.25981 47.902-3.02821 66.623 12.9417 12.663 11.01359 31.384 34.96879 28.907 81.50249 11.562-22.3032 23.124-42.403 42.12-44.8815 39.368-4.9564 50.38 17.0715 68.55 53.4173 6.332 12.391 13.49 26.709 23.125 42.679 23.4 38.824 72.679 45.983 97.46 34.143 11.562-5.507 17.339-14.318 17.339-25.607-1.376.55-3.025 1.101-4.128 1.377-18.449 4.956-37.719-.827-47.624-14.594-7.16-9.912-7.989-21.477-2.478-31.114 4.949-8.8114 14.314-13.7677 24.5-12.9412 8.81.8256 25.602 6.8836 37.164 39.0992.274.551.548 1.101.548 1.928 22.029-15.695 36.89-51.2152 41.026-99.4009 1.376-15.6947 2.478-30.838969 3.572-45.4328 7.161-99.6753 12.391-171.5403 66.628-198.2503 24.774-12.115 56.708-12.39 57.811-12.39 3.025 0 5.503 2.479 5.503 5.507 0 3.029-2.478 5.507-5.503 5.507-.274 0-30.559.276-53.136 11.289-48.452 23.955-53.409 93.343-60.562 189.1638-1.102 14.593-2.204 29.7372-3.58 45.7079-5.785 69.9373-30.558 98.5743-49.555 110.1393 1.931 17.897-6.332 32.766-23.398 40.75-32.489 15.42-87.271 2.203-111.773-38.548-9.911-16.246-17.068-30.839-23.401-43.504-17.619-35.2453-25.878-51.4904-57.537-47.3605-14.591 1.9273-25.053 22.3031-36.339 44.3311-3.58 6.8834-7.159 14.0424-11.288 21.2014-22.574 104.632-122.783 171.266-185.002 172.916.276-.821 0-.821-.55-.821zm-20.372-126.662c-6.608 0-12.3887 1.651-16.2427 4.68-15.4168 12.391-18.9956 44.606-8.5343 72.966 1.6518 4.128 4.1292 10.188 8.2591 16.521 22.5749-3.854 45.4239-21.204 49.5529-48.185 3.029-19.274-2.477-33.868-15.14-41.302-5.507-3.304-12.114-4.68-17.895-4.68zm137.099-165.209341c-6.057 0-12.113 1.101689-17.894 3.029021-41.846 15.69472-54.51 50.11312-52.583 77.37262 2.203 29.7377 22.3 63.8807 63.044 72.9677 33.311 7.434 52.032-12.667 66.898-38.549 12.664-60.5766-7.984-89.213-21.474-100.5018-11.011-9.36221-24.776-14.318541-37.991-14.318541zm290.714 100.227041c-5.23 0-9.904 2.7533-12.664 7.4343-3.299 5.782-2.752 13.217 1.931 19.274 7.153 10.188 21.474 14.319 35.515 10.463 1.923-.55 3.58-1.101 5.503-1.927-.274-1.101-.829-2.478-1.102-3.58-6.88-19.274-17.066-30.839-27.807-31.9396-.547.2753-.821.2753-1.376.2753zm-387.344-204.8587c-5.782 0-11.838 1.101-17.895 3.305-30.8335 11.2884-43.2219 43.5042-39.643 68.01 4.1299 27.53468 26.704 44.6062 60.015 46.2584 1.377 0 2.754.5504 3.579 1.6521 7.709-8.5358 14.592-17.89727 19.547-28.3612 15.967-32.7663 16.793-62.5036 1.927-79.0239-6.882-7.7104-16.518-11.8404-27.53-11.8404z" fill="#0d2a6d"/><path d="m409.314 394.253c-.55 0-1.101-.274-1.651-.829-.826-.821-.551-2.197.275-3.026 36.89-29.735 65.797-17.35 84.244-5.504 19.817 12.666 35.788-6.06 36.609-6.889.829-.821 1.931-1.102 3.033-.273.821.828 1.102 1.931.274 3.025-.274.282-18.997 22.308-41.847 7.718-17.618-11.017-44.872-22.581-79.56 5.504-.55.274-1.102.274-1.377.274z" fill="#b1e8d2"/><path d="m409.314 419.313c-.55 0-1.101-.274-1.651-.821-.826-.829-.551-2.205.275-3.034 36.89-29.735 65.797-17.342 84.244-5.505 19.817 12.667 35.788-6.059 36.609-6.88.829-.829 1.931-1.103 3.033-.282.821.829 1.102 1.932.274 3.034-.274.274-18.997 22.299-41.847 7.709-17.618-11.016-44.872-22.58-79.56 5.505-.55 0-1.102.274-1.377.274z" fill="#b1e8d2"/><path d="m314.064 467.492-36.064 20.931h-115.901l-42.12-72.966 123.058-71.315z" fill="#0d2a6d"/><path d="m230.371 416.834 80.938-106.555 56.712 117.298z" fill="#b1e8d2"/><g fill="#0d2a6d"><path d="m408.491 466.671c-.275 0-.275 0-.55 0l-28.907-9.085c-1.101-.274-1.652-1.377-1.376-2.479.275-1.103 1.376-1.65 2.478-1.376l28.906 9.085c1.101.274 1.652 1.376 1.377 2.479 0 .829-.826 1.376-1.928 1.376z"/><path d="m359.21 325.972c-.275 0-.55 0-.55 0-1.102-.282-1.652-1.658-1.377-2.479l4.68-13.769c.276-1.102 1.652-1.65 2.478-1.376 1.101.274 1.652 1.65 1.376 2.479l-4.68 13.769c-.275.82-1.101 1.376-1.927 1.376z"/><path d="m167.879 357.638c-.826 0-1.376-.282-1.927-1.103l-15.141-27.538c-.551-1.102-.276-2.205.825-2.752 1.102-.547 2.203-.274 2.754.829l15.141 27.53c.551 1.102.276 2.205-.826 2.752-.275.282-.55.282-.826.282z"/></g></g></svg>