<svg fill="none" height="781" viewBox="0 0 751 781" width="751" xmlns="http://www.w3.org/2000/svg"><path d="m104.164 606.775c-.853 0-1.707-.565-1.991-1.422l-14.7937-35.287c-.5687-1.139 0-2.279 1.1383-2.844 1.1374-.566 2.2757 0 2.8444 1.139l14.794 35.287c.569 1.132 0 2.271-1.138 2.845-.285.282-.569.282-.854.282z" fill="#b1e8d2"/><path d="m90.2274 615.034c-.5688 0-1.4218-.291-1.707-.857l-14.2246-21.623c-.5687-.857-.2843-2.279.5696-2.853.8531-.565 2.2757-.282 2.8444.574l14.2246 21.623c.5695.857.2843 2.279-.5688 2.845-.2844.291-.8531.291-1.1382.291z" fill="#b1e8d2"/><path d="m434.255 594.393-48.353 36.791 25.86 16.131-6.295 30.273 28.719-41.212-19.126-9.525z" fill="#b1e8d2"/><g fill="#ffe4d8"><path d="m91.4578 106.023-9.4073 30.723 16.0835-1.056 6.641 14.943-.389-26.561-11.1524 1.813z"/><path d="m454.881 26.0584-18.821-3.0096-3.013 18.8245 18.821 3.0097z"/><path d="m236.783 722-48.783-42.501 1.065-1.288c.426-.645 12.355-13.524 27.479-14.168 7.67-.429 14.699 2.361 20.874 8.157 18.746 17.172 1.065 46.795.212 48.083zm-44.31-42.717 43.457 37.78c3.406-6.225 13.629-28.978-.641-42.287-5.752-5.152-11.928-7.728-18.532-7.513-11.29.429-20.875 8.801-24.284 12.02z"/><path d="m614.43 519.163 43.027-26.424.777 48.467z"/><path d="m468.875 494.8-16.939 6.73 6.729 16.939 16.94-6.73z"/><path d="m521.311 696.569c-.424 0-.918-.142-1.271-.495-.707-.706-.707-1.837 0-2.473l21.195-21.195c.707-.707 1.837-.707 2.473 0 .706.706.706 1.837 0 2.473l-21.196 21.195c-.282.353-.777.495-1.201.495z"/><path d="m531.271 709.71c-.565 0-1.13-.283-1.483-.777-.566-.848-.283-1.908.494-2.473l18.016-11.658c.848-.494 1.908-.282 2.473.495s.283 1.907-.495 2.473l-18.016 11.657c-.353.142-.636.283-.989.283z"/></g><path d="m114.357 230.268c-.495 0-1.06-.212-1.413-.706l-15.5436-19.783c-.6358-.777-.4945-1.907.2827-2.473.7771-.635 1.9075-.494 2.4729.283l15.543 19.783c.636.777.495 1.907-.282 2.472-.283.283-.707.424-1.06.424z" fill="#bce7d3"/><path d="m600.438 131.003c3.902 0 7.065-3.163 7.065-7.065s-3.163-7.066-7.065-7.066-7.065 3.164-7.065 7.066 3.163 7.065 7.065 7.065z" fill="#ffe4d8"/></svg>