<svg fill="none" height="608" viewBox="0 0 1440 608" width="1440" xmlns="http://www.w3.org/2000/svg" xmlns:xlink="http://www.w3.org/1999/xlink"><clipPath id="a"><path d="m0 0h1440v608h-1440z"/></clipPath><g clip-path="url(#a)" fill="#15357d"><path d="m1620.52 471.26c3.55 15.568-.46 31.447-11.17 45.183 1.19 3.965 1.78 7.784 2.1 11.663 2.48 28.235-15.63 60.317-73.47 66.725-70.56 7.613-110.64-24.477-149.39-55.738-11.1-9.047-22.14-17.825-33.47-25.407 4.86 36.165-9.63 64.314-39.4 76.183-31.86 12.626-69.88.681-88.19-27.616-12.68-19.699-13.28-42.151-1.78-58.608 15.62-21.914 48.64-29.441 88.92-19.987 31.64 7.471 55.48 26.601 81.04 47.035 36.99 29.688 75.08 60.534 141.23 53.364 42.44-4.593 66.25-25.268 63.73-54.905-.25-1.074-.16-1.942-.4-3.016-3.54 3.067-7.35 6.193-11.54 8.844-25.06 16.441-63.84 24.717-85.86 7.428-11.37-8.986-16.43-28.726-11.2-45.447 3.43-10.948 13.84-29.698 46.68-31.819 30.3-2.106 54.78 16.034 66.46 38.783 5.11-8.508 8.29-19.396 4.93-31.619-11.5-44.252-75.66-118.851-168.65-131.54 18.01 10.86 31.3 27.032 31.39 54.683.28 40.878-25.78 76.466-64.9 88.207-29.84 9.063-71.48 3.587-99.45-38.602-12.89-19.369-13.6-46.031-2.19-67.833 7.92-14.794 27.12-38.371 73.04-46.297-24.32-6.317-46.48-13.123-53.12-31.092-13.58-37.282 5.45-52.915 36.85-78.708 10.67-8.927 23.04-19.088 36.47-32.032 32.65-31.443 28.68-81.08 11.63-102.6102-7.94-10.049-17.82-13.7234-28.82-11.2144.84 1.2192 1.74 2.7049 2.26 3.7184 8.93 16.8863 7.57 36.9592-3.65 49.6762-8.07 9.185-19.16 12.563-29.78 9.331-9.69-2.866-16.61-10.896-18.06-21.011-1.16-8.773 1.02-26.4917 29.86-44.9243.47-.3891.95-.7783 1.76-.962-20.2-17.9906-58.14-24.5858-106.04-17.9088-15.61 2.1466-30.62 4.4376-45.09 6.6139-98.77 15.1705-170 26.0431-208.1-20.9021-17.315-21.4614-24.681-52.536-24.926-53.6107-.672-2.9497 1.193-5.9166 4.146-6.5896 2.953-.6732 5.92 1.1922 6.592 4.1419.061.2668 7.061 29.733 22.818 49.2975 34.12 41.9169 102.88 31.3283 197.89 17.0068 14.47-2.1685 29.48-4.4596 45.36-6.6675 69.48-9.903 102.9 7.8868 118.4 23.8379 17.02-5.8602 33.35-1.1083 44.93 13.7559 22.26 28.2501 21.54 84.6001-12.74 117.5451-13.64 13.274-26.28 23.496-37.22 32.484-30.45 25.011-44.45 36.674-33.39 66.624 5.12 13.798 27.32 19.469 51.3 25.578 7.51 1.961 15.28 3.859 23.18 6.294 107.03-1.244 194.27 81.65 209.71 141.945-.86-.086-.8.183-.68.719zm-118.97 48.013c1.47 6.442 4.37 11.712 8.18 14.796 15.5 12.278 47.71 8.607 73.03-7.895 3.66-2.528 9.02-6.29 14.28-11.725-8.78-21.153-30.77-39.575-58-37.605-19.46 1.331-32.47 9.943-36.9 23.941-2 6.104-1.87 12.851-.59 18.488zm-191.54-96.954c1.34 5.905 3.76 11.565 6.93 16.773 24.6 37.312 60.97 42.01 87.12 34.072 28.5-8.756 57.33-35.938 57.13-77.683-.15-34.13-23.91-47.916-52.45-56.658-61.88 1.116-85.21 27.611-93.22 43.273-6.68 12.817-8.45 27.339-5.51 40.223zm33.11-305.719c1.16 5.1 4.88 9.046 10.06 10.696 6.37 1.931 13.5-.255 18.36-6.166 8.35-9.239 9.19-24.1201 2.31-36.9523-.96-1.7526-1.87-3.2461-3.1-4.9374-1.01.5114-2.23 1.3585-3.25 1.8701-17.26 10.9909-26.27 23.4926-24.96 34.2096.39.473.45.739.58 1.28zm-113.65 423.186c1.28 5.637 3.7 11.297 7.2 16.713 17.86 27.554 52.02 32.473 75.12 23.537 25.92-10.146 37.55-35.95 31.76-68.795-.31-1.342-.08-2.807.81-3.857-10.03-5.619-20.69-10.248-31.99-12.755-35.5-8.285-64.67-2.481-77.48 15.684-5.98 8.424-7.87 18.737-5.42 29.473z"/><path d="m-204 240.556 363.83-443.556s214.878 236.3973 24.421 436.241c-190.46453 199.85-388.251 7.315-388.251 7.315z"/></g></svg>