<svg fill="none" height="38" viewBox="0 0 34 38" width="34" xmlns="http://www.w3.org/2000/svg"><path d="m32.795 22.1733c-.1959-.2362-.4364-.4315-.7079-.5747s-.5685-.2313-.8741-.2595c-.3057-.0282-.6138.0042-.9069.0953s-.5653.2391-.8011.4356l-10.1733 8.47v-27.67333c0-.61884-.2458-1.21234-.6834-1.64992-.4376-.437585-1.0311-.683418-1.6499-.683418-.6189 0-1.2124.245833-1.65.683418-.4375.43758-.6834 1.03108-.6834 1.64992v27.67333l-10.17331-8.47c-.23594-.1961-.5082-.3438-.80123-.4347s-.60109-.1232-.90659-.095c-.30551.0281-.60247.1162-.87394.2591-.27147.143-.51213.338-.70824.5739-.19611.236-.343821.5082-.434709.8013-.090889.293-.123172.601-.095005.9066.028167.3055.116233.6024.259167.8739.142937.2715.337937.5121.573877.7082l13.99998 11.6667.35.21.3034.1633c.5405.2086 1.1394.2086 1.68 0l.3033-.1633.35-.21 14-11.6667c.2363-.1959.4316-.4364.5747-.7079.1432-.2715.2314-.5685.2595-.8741.0282-.3057-.0042-.6138-.0953-.9069s-.2391-.5653-.4356-.8011z" fill="#0d2a6d"/></svg>