<svg fill="none" height="72" viewBox="0 0 72 72" width="72" xmlns="http://www.w3.org/2000/svg"><path d="m72 36c0 20.0007-16.0009 36-36 36-20.0007 0-36-10.286-36-36 0-20.0007 15.9993-36 36-36 19.9991 0 36 15.9993 36 36z" fill="#0d2a6d"/><path d="m49.1264 52.4062-4.3312-16.875c1.6014-1.9924 2.4686-4.475 2.4562-7.0312 0-2.9837-1.1852-5.8452-3.295-7.955-2.1098-2.1097-4.9713-3.295-7.955-3.295-2.9836 0-5.8451 1.1853-7.9549 3.295-2.1098 2.1098-3.2951 4.9713-3.2951 7.955-.0051 2.5759.8828 5.0739 2.5125 7.0688l-4.3875 16.8374c-.0933.3599-.0775.7394.0453 1.0903.1229.3509.3473.6574.6447.8804.2974.2231.6545.3527 1.0257.3724.3713.0197.74-.0714 1.0593-.2618l9.9938-5.8688 10.65 5.8875c.2878.1737.6204.2585.9562.2438.2912.0093.5805-.0494.845-.1714s.497-.3039.679-.5313c.1819-.2275.3084-.4942.3693-.7791.061-.2848.0547-.5799-.0183-.862zm-13.125-31.4062c1.4834 0 2.9335.4399 4.1668 1.264 1.2334.8241 2.1947 1.9954 2.7623 3.3659.5677 1.3704.7162 2.8784.4268 4.3333-.2894 1.4548-1.0037 2.7912-2.0526 3.8401s-2.3852 1.7632-3.8401 2.0526c-1.4548.2894-2.9628.1409-4.3333-.4268-1.3704-.5677-2.5418-1.529-3.3659-2.7623-.8241-1.2334-1.264-2.6834-1.264-4.1668 0-1.9891.7902-3.8968 2.1967-5.3033 1.4066-1.4065 3.3142-2.1967 5.3033-2.1967zm.5813 23.8312c-.285-.1645-.6084-.2512-.9375-.2512s-.6525.0867-.9375.2512l-7.0313 4.125 2.7-10.6875c1.6887.9706 3.6023 1.4814 5.55 1.4814s3.8614-.5108 5.55-1.4814l2.8688 10.8563z" fill="#ffe4d8"/></svg>