<svg fill="none" height="72" viewBox="0 0 72 72" width="72" xmlns="http://www.w3.org/2000/svg"><path d="m72 36c0 20.0007-16.0009 36-36 36-20.0007 0-36-10.286-36-36 0-20.0007 15.9993-36 36-36 19.9991 0 36 15.9993 36 36z" fill="#0d2a6d"/><path d="m34.3302 56.6249c-.2174-.0002-.4332-.0383-.6375-.1125-.3943-.1443-.7286-.4168-.9496-.7737-.221-.357-.3158-.7778-.2692-1.195l1.4438-13.2938h-11.0438c-.3406.0006-.6749-.0917-.9671-.2669-.2921-.1752-.531-.4266-.691-.7274-.16-.3007-.235-.6393-.2171-.9795.0179-.3401.1282-.669.319-.9512l14.7937-22.125c.234-.3462.5769-.6044.9744-.7334.3974-.1291.8266-.1217 1.2194.0209.3776.1402.7.3983.9195.736s.3244.7371.2992 1.139l-1.4437 13.3875h11.0437c.3407-.0005.675.0918.9671.267.2922.1752.531.4266.691.7273.16.3008.2351.6394.2171.9795-.0179.3402-.1282.669-.3189.9512l-14.7938 22.125c-.172.2545-.4038.4628-.6752.6067-.2714.1438-.5739.2188-.881.2183zm-7.95-19.125h9.6187c.2617.0007.5203.056.7592.1626.239.1066.453.262.6283.4562.177.1969.3102.429.391.681.0808.2521.1073.5184.0778.7815l-.8438 7.7812 8.6063-12.8625h-9.6188c-.2646.0016-.5265-.0528-.7686-.1596-.242-.1069-.4587-.2637-.6358-.4603s-.3106-.4284-.3917-.6803-.108-.518-.0789-.781l.8438-7.7813z" fill="#ffe4d8"/></svg>