<svg fill="none" height="72" viewBox="0 0 72 72" width="72" xmlns="http://www.w3.org/2000/svg"><path d="m72 36c0 20.0007-16.0009 36-36 36-20.0007 0-36-10.286-36-36 0-20.0007 15.9993-36 36-36 19.9991 0 36 15.9993 36 36z" fill="#0d2a6d"/><g fill="#ffe4d8"><path d="m30.1875 23.1937c.9402-.8518 2.0542-1.4892 3.265-1.868 1.2108-.3787 2.4895-.4899 3.7475-.3257 2.1684.3521 4.1366 1.4756 5.5423 3.1638s2.1542 3.8274 2.1077 6.0237v8.4375c.0043.3763.0676.7496.1875 1.1062l6.75 6.75c.3675-.3018.6569-.6877.8438-1.125.2361-.5582.2997-1.1744.1828-1.7692-.117-.5947-.4092-1.1409-.8391-1.5683l-3.375-3.3937v-8.3625c.0449-3.1053-1.0353-6.122-3.041-8.4931-2.0058-2.3711-4.8017-3.9364-7.8715-4.4069-1.7818-.2387-3.5941-.0928-5.3148.428-1.7206.5207-3.3097 1.4041-4.6602 2.5907-.3817.3164-.7448.6544-1.0875 1.0125l2.7563 2.6813c.2488-.3113.5182-.6057.8062-.8813z"/><path d="m39.7495 45.1124-1.5562-1.6125h-14.3625l2.2125-2.2125c.3509-.3488.6293-.7637.8192-1.2207.1899-.4569.2874-.9469.287-1.4418v-6.1687l-3.75-3.75c-.0191.3685-.0191.7377 0 1.1062v8.8125l-3.375 3.3938c-.4331.4275-.7287.9745-.849 1.5711-.1203.5965-.0597 1.2154.1739 1.7773.2337.562.6297 1.0413 1.1375 1.3768.5077.3354 1.1041.5116 1.7126.506h6.3v.6375c.0876 1.9035.9262 3.6947 2.332 4.981s3.2642 1.9629 5.168 1.8815c1.7711.0804 3.5106-.4888 4.8917-1.6005 1.381-1.1118 2.3086-2.6896 2.6083-4.437l-1.5562-1.4625zm-3.75 5.8875c-.9056.0639-1.8009-.224-2.4995-.8038s-1.1465-1.4068-1.2505-2.3087v-.6375h7.5v.6375c-.104.9019-.5519 1.7289-1.2505 2.3087-.6985.5798-1.5939.8677-2.4995.8038z"/><path d="m52.3311 49.6687-2.4375-2.4187-3.75-3.75-17.85-17.8688-2.7562-2.7562-3.2063-3.2063c-.1748-.1748-.3824-.3135-.6108-.4081s-.4732-.1433-.7204-.1433c-.2473 0-.4921.0487-.7205.1433s-.436.2333-.6108.4081c-.3531.3531-.5514.832-.5514 1.3313s.1983.9782.5514 1.3312l4.2 4.2938 3.2813 3.1875 13.7062 13.6875.1313.1312 2.5125 2.5125 1.1062 1.1063 5.0625 5.0812c.1743.1758.3817.3153.6102.4105.2285.0951.4735.1442.7211.1442.2475 0 .4926-.0491.721-.1442.2285-.0952.4359-.2347.6102-.4105.1757-.1743.3152-.3817.4104-.6101.0952-.2285.1442-.4736.1442-.7211s-.049-.4926-.1442-.7211-.2347-.4359-.4104-.6102z"/></g></svg>