<svg fill="none" height="40" viewBox="0 0 266 40" width="266" xmlns="http://www.w3.org/2000/svg"><g fill="#0d2a6d"><path d="m17.2054 29.3574c-.4748.289-.9496.5368-1.4245.7432-1.3832.5781-2.8387.8671-4.3664.8671-1.52776 0-2.98325-.289-4.36647-.8671-1.28-.5161-2.43613-1.2593-3.46839-2.2296-1.03226-.991-1.84774-2.1058-2.44645-3.3445-.64-1.342-1.011613-2.7562-1.1148387-4.2426-.0825807-1.5071.1135487-2.9626.5883867-4.3665.578062-1.6929 1.527742-3.1793 2.849032-4.4593 1.32129-1.3007 2.84903-2.21939 4.58323-2.75617 1.0529-.33032 2.1781-.49548 3.3755-.49548 1.4245 0 2.8077.26839 4.1497.80516 1.3625.53678 2.5703 1.30069 3.6232 2.29159 1.7961 1.6723 2.9213 3.7058 3.3755 6.1007.1445.7225.2167 1.4555.2167 2.1987v11.3651h-5.5742zm-5.8219-15.5768c-1.58966 0-2.95225.5678-4.08773 1.7033-.74323.7225-1.24903 1.6206-1.51742 2.6942-.26839 1.0529-.24774 2.0851.06194 3.0967.28903.991.8258 1.8478 1.61032 2.5704.78452.7225 1.68258 1.1974 2.69419 1.4245.7019.1238 1.3936.1445 2.0748.0619.702-.1032 1.3626-.3303 1.982-.6813.64-.3509 1.1871-.7948 1.6413-1.3316.578-.7019.9703-1.5071 1.1767-2.4155.2271-.9084.2271-1.8167 0-2.7251-.2683-1.0529-.8258-1.982-1.6722-2.7871-.8258-.8052-1.7755-1.311-2.849-1.5175-.3717-.0619-.7433-.0929-1.1149-.0929z"/><path d="m38.4263 30.9677c-1.5484 0-3.0245-.2993-4.4284-.898-1.4038-.5987-2.6219-1.4039-3.6541-2.4155-1.0117-1.0323-1.8168-2.2503-2.4155-3.6542s-.8981-2.8697-.8981-4.3974v-11.39615h5.5742v11.39615c0 1.5897.5677 2.9522 1.7032 4.0877 1.1562 1.1355 2.5291 1.7032 4.1187 1.7032 1.5897 0 2.942-.5677 4.0568-1.7032 1.1355-1.1355 1.7032-2.498 1.7032-4.0877v-11.39615h5.5742v11.39615c0 2.0438-.5058 3.9432-1.5174 5.698-1.0116 1.7342-2.3948 3.1175-4.1497 4.1497-1.7342 1.0116-3.6232 1.5174-5.6671 1.5174z"/><path d="m54.2523 0h5.5742v8.11355h5.2645v5.57415h-5.2645v17.28h-5.5742z"/><path d="m89.6545 15.2671c.578 1.3832.8671 2.8284.8671 4.3355s-.2891 2.9626-.8671 4.3664c-.5781 1.3833-1.4039 2.6013-2.4774 3.6542-1.0529 1.0736-2.2813 1.8994-3.6852 2.4774-1.3832.5781-2.8284.8671-4.3355.8671s-2.9626-.289-4.3664-.8671c-1.3833-.578-2.6117-1.3935-3.6852-2.4464-1.0736-1.0736-1.8994-2.3019-2.4774-3.6852-.5781-1.4038-.8671-2.8593-.8671-4.3664 0-1.0116.1239-1.9923.3716-2.942.2684-.9703.6503-1.889 1.1458-2.7561.5161-.8671 1.1252-1.6516 1.8271-2.3535 1.0735-1.0736 2.3019-1.89939 3.6852-2.47745 1.4038-.57807 2.8593-.8671 4.3664-.8671s2.9523.28903 4.3355.8671c1.4039.57806 2.6323 1.40385 3.6852 2.47745 1.0735 1.0735 1.8993 2.3122 2.4774 3.7161zm-10.4981-1.4865c-1.6103 0-2.9832.5678-4.1187 1.7033s-1.7032 2.5084-1.7032 4.1187c0 1.5897.5677 2.9522 1.7032 4.0877s2.5084 1.7032 4.1187 1.7032c1.5897 0 2.9523-.5677 4.0877-1.7032 1.1355-1.1355 1.7033-2.498 1.7033-4.0877 0-1.6103-.5678-2.9832-1.7033-4.1187-1.1354-1.1355-2.498-1.7033-4.0877-1.7033z"/><path d="m112.893 19.169v11.7987h-5.574v-11.458-2.1678c0-.9909-.351-1.8271-1.053-2.5084-.681-.7019-1.517-1.0529-2.508-1.0529s-1.838.351-2.539 1.0529c-.682.6813-1.022 1.5175-1.022 2.5084v1.8271 11.7987h-5.5746v-11.458-2.1678c0-1.218.2271-2.3845.6813-3.4993.4748-1.1149 1.1355-2.0955 1.9819-2.942.8671-.8671 1.8581-1.5277 2.9734-1.98189 1.114-.47484 2.281-.71226 3.499-.71226 2.457 0 4.573.85677 6.348 2.57035 1.776-1.71358 3.892-2.57035 6.349-2.57035 2.518 0 4.665.89807 6.441 2.69415 1.796 1.7755 2.694 3.9226 2.694 6.4413v1.8271 11.7987h-5.574v-11.458-2.1678c0-.9909-.351-1.8271-1.053-2.5084-.681-.7019-1.517-1.0529-2.508-1.0529s-1.838.351-2.54 1.0529c-.681.6813-1.022 1.5175-1.022 2.5084z"/><path d="m146.822 29.3574c-.474.289-.949.5368-1.424.7432-1.383.5781-2.839.8671-4.367.8671-1.527 0-2.983-.289-4.366-.8671-1.28-.5161-2.436-1.2593-3.468-2.2296-1.033-.991-1.848-2.1058-2.447-3.3445-.64-1.342-1.011-2.7562-1.115-4.2426-.082-1.5071.114-2.9626.589-4.3665.578-1.6929 1.527-3.1793 2.849-4.4593 1.321-1.3007 2.849-2.21939 4.583-2.75617 1.053-.33032 2.178-.49548 3.375-.49548 1.425 0 2.808.26839 4.15.80516 1.363.53678 2.57 1.30069 3.623 2.29159 1.796 1.6723 2.922 3.7058 3.376 6.1007.144.7225.217 1.4555.217 2.1987v11.3651h-5.575zm-5.822-15.5768c-1.589 0-2.952.5678-4.087 1.7033-.744.7225-1.249 1.6206-1.518 2.6942-.268 1.0529-.247 2.0851.062 3.0967.289.991.826 1.8478 1.611 2.5704.784.7225 1.682 1.1974 2.694 1.4245.702.1238 1.393.1445 2.075.0619.702-.1032 1.362-.3303 1.982-.6813.64-.3509 1.187-.7948 1.641-1.3316.578-.7019.97-1.5071 1.177-2.4155.227-.9084.227-1.8167 0-2.7251-.269-1.0529-.826-1.982-1.673-2.7871-.825-.8052-1.775-1.311-2.849-1.5175-.371-.0619-.743-.0929-1.115-.0929z"/><path d="m156.833 0h5.574v8.11355h5.265v5.57415h-5.265v17.28h-5.574z"/><path d="m176.627 22.3897c.723 1.28 1.755 2.1677 3.097 2.6632.785.2684 1.59.3716 2.416.3097.846-.062 1.62-.2787 2.322-.6503.475-.2684.878-.5575 1.208-.8671l4.676 3.1587c-1.197 1.3625-2.612 2.3948-4.242 3.0967-1.384.5781-2.839.8671-4.367.8671s-2.983-.289-4.366-.8671c-1.28-.5161-2.437-1.2593-3.469-2.2296-1.032-.991-1.848-2.1058-2.446-3.3445-.64-1.342-1.012-2.7562-1.115-4.2426-.083-1.5071.113-2.9626.588-4.3665.578-1.6929 1.528-3.1793 2.849-4.4593 1.322-1.3007 2.849-2.21939 4.584-2.75617 1.052-.33032 2.178-.49548 3.375-.49548.95 0 1.889.12387 2.818.37161s1.807.59871 2.632 1.05291c.847.45423 1.621 1.01163 2.323 1.67223 1.796 1.6723 2.921 3.7058 3.375 6.1007.331 1.6722.289 3.3342-.123 4.9858zm10.189-5.5742c-.31-.5781-.733-1.1149-1.27-1.6103-1.094-.9291-2.353-1.4039-3.778-1.4246-.372 0-.754.0413-1.146.1239-.371.0619-.733.1652-1.084.3097s-.691.32-1.022.5264c-.309.2065-.598.4439-.867.7123-.392.3923-.733.8465-1.022 1.3626z"/><path d="m198.069 29.9458c-.681-.7019-1.022-1.5484-1.022-2.5393 0-.991.341-1.8271 1.022-2.5084.702-.702 1.549-1.0529 2.54-1.0529s1.827.3509 2.508 1.0529c.702.6813 1.053 1.5174 1.053 2.5084 0 .9909-.351 1.8374-1.053 2.5393-.681.6813-1.517 1.0219-2.508 1.0219s-1.838-.3406-2.54-1.0219z"/><path d="m226.452 19.169v11.7987h-5.574v-11.458-2.1678c0-.9909-.351-1.8271-1.053-2.5084-.682-.7019-1.518-1.0529-2.509-1.0529s-1.837.351-2.539 1.0529c-.681.6813-1.022 1.5175-1.022 2.5084v1.8271 11.7987h-5.574v-11.458-2.1678c0-1.218.227-2.3845.681-3.4993.475-1.1149 1.136-2.0955 1.982-2.942.867-.8671 1.858-1.5277 2.973-1.98189 1.115-.47484 2.281-.71226 3.499-.71226 2.457 0 4.573.85677 6.349 2.57035 1.775-1.71358 3.891-2.57035 6.348-2.57035 2.519 0 4.666.89807 6.441 2.69415 1.797 1.7755 2.695 3.9226 2.695 6.4413v1.8271 11.7987h-5.575v-11.458-2.1678c0-.9909-.351-1.8271-1.053-2.5084-.681-.7019-1.517-1.0529-2.508-1.0529s-1.837.351-2.539 1.0529c-.682.6813-1.022 1.5175-1.022 2.5084z"/><path d="m249.48 22.3897c.723 1.28 1.755 2.1677 3.097 2.6632.784.2684 1.59.3716 2.415.3097.847-.062 1.621-.2787 2.323-.6503.475-.2684.877-.5575 1.208-.8671l4.676 3.1587c-1.198 1.3625-2.612 2.3948-4.243 3.0967-1.383.5781-2.838.8671-4.366.8671s-2.983-.289-4.367-.8671c-1.28-.5161-2.436-1.2593-3.468-2.2296-1.032-.991-1.848-2.1058-2.446-3.3445-.64-1.342-1.012-2.7562-1.115-4.2426-.083-1.5071.113-2.9626.588-4.3665.578-1.6929 1.528-3.1793 2.849-4.4593 1.321-1.3007 2.849-2.21939 4.583-2.75617 1.053-.33032 2.178-.49548 3.376-.49548.95 0 1.889.12387 2.818.37161s1.806.59871 2.632 1.05291c.847.45423 1.621 1.01163 2.323 1.67223 1.796 1.6723 2.921 3.7058 3.375 6.1007.331 1.6722.289 3.3342-.124 4.9858zm10.189-5.5742c-.31-.5781-.733-1.1149-1.27-1.6103-1.094-.9291-2.354-1.4039-3.778-1.4246-.372 0-.754.0413-1.146.1239-.372.0619-.733.1652-1.084.3097s-.691.32-1.022.5264c-.309.2065-.598.4439-.867.7123-.392.3923-.733.8465-1.022 1.3626z"/><path clip-rule="evenodd" d="m90.5211 19.6025c0-1.507-.2891-2.9522-.8671-4.3354-.5781-1.4039-1.4039-2.6426-2.4775-3.7162-1.0529-1.0735-2.2812-1.89932-3.6851-2.47738-1.3832-.57807-2.8284-.8671-4.3355-.8671s-2.9626.28903-4.3665.8671c-1.3832.57806-2.6116 1.40388-3.6851 2.47738-.702.702-1.311 1.4865-1.8271 2.3536-.4955.8671-.8774 1.7858-1.1458 2.7561-.2478.9497-.3716 1.9303-.3716 2.9419 0 1.5071.289 2.9626.8671 4.3665.578 1.3832 1.4038 2.6116 2.4774 3.6852 1.0735 1.0529 2.3019 1.8684 3.6851 2.4464 1.4039.5781 2.8594.8671 4.3665.8671s2.9523-.289 4.3355-.8671c1.4039-.578 2.6322-1.4039 3.6851-2.4774 1.0736-1.0529 1.8994-2.271 2.4775-3.6542.578-1.4039.8671-2.8594.8671-4.3665zm-15.4839-4.1187c1.1355-1.1354 2.5084-1.7032 4.1187-1.7032 1.5897 0 2.9523.5678 4.0877 1.7032 1.1355 1.1355 1.7033 2.5084 1.7033 4.1187 0 .1341-.0041.2666-.0122.3975h-11.5886c-.0081-.1309-.0121-.2634-.0121-.3975 0-1.6103.5677-2.9832 1.7032-4.1187z" fill-rule="evenodd"/><path d="m87.2227 34.4086v5.5914h-4.2259-2.9032-9v-5.5914z"/></g></svg>