<svg fill="none" height="40" viewBox="0 0 40 40" width="40" xmlns="http://www.w3.org/2000/svg"><g fill="#b1e8d2"><path d="m16.9827 13.6756c.8315-.8315 1.8368-1.2473 3.016-1.2473 1.1641 0 2.1619.4158 2.9934 1.2473s1.2473 1.8368 1.2473 3.0161c0 .0981-.003.1952-.0089.291h-8.4862c-.0059-.0958-.0089-.1929-.0089-.291 0-1.1793.4158-2.1846 1.2473-3.0161z"/><path clip-rule="evenodd" d="m0 6.29921c0-3.47896 2.82025-6.29921 6.29921-6.29921h27.40159c3.4789 0 6.2992 2.82025 6.2992 6.29921v27.40159c0 3.4789-2.8203 6.2992-6.2992 6.2992h-27.40159c-3.47896 0-6.29921-2.8203-6.29921-6.2992zm28.3213 10.39249c0-1.1037-.2117-2.1619-.635-3.1748-.4233-1.0281-1.028-1.9352-1.8142-2.7213-.771-.7862-1.6705-1.39087-2.6986-1.81418-1.0129-.42331-2.0711-.63496-3.1748-.63496-1.1036 0-2.1694.21165-3.1974.63496-1.013.42331-1.9125 1.02798-2.6986 1.81418-.514.514-.96 1.0885-1.338 1.7235-.3628.6349-.6425 1.3077-.839 2.0182-.1814.6955-.2722 1.4136-.2722 2.1544 0 1.1036.2117 2.1694.635 3.1974.4233 1.0129 1.028 1.9125 1.8142 2.6986.7861.771 1.6856 1.3682 2.6986 1.7915 1.028.4233 2.0938.635 3.1974.635 1.1037 0 2.1619-.2117 3.1748-.635 1.0281-.4233 1.9276-1.028 2.6986-1.8142.7862-.771 1.3909-1.663 1.8142-2.6759.4233-1.028.635-2.0938.635-3.1974zm-2.415 14.9366v-4.0944h-11.811v4.0944z" fill-rule="evenodd"/></g></svg>